<svg xmlns="http://www.w3.org/2000/svg" width="520.54" height="303.99" viewBox="0 0 520.54 303.99"><title>Asset 1</title><g id="Layer_2" data-name="Layer 2"><g id="Layer_1-2" data-name="Layer 1"><path d="M260.23,210.19c1.33-1.22,2.46-2.16,3.49-3.2Q363.38,107.29,463,7.56c10-10,18.42-10.08,28.4-.13q11.14,11.13,22.25,22.29c9.16,9.19,9.18,18.2,0,27.38q-114.49,114.56-229,229.09c-3.77,3.77-7.48,7.6-11.3,11.31-8.85,8.61-17.43,8.71-26.22,0Q216.47,267,186,236.33,96.94,147.21,7.9,58.11C-2.64,47.57-2.66,39.21,8,28.63,15.21,21.47,22.32,14.2,29.54,7.05c9.58-9.48,18.1-9.39,27.68.2L256.16,206.32C257.43,207.59,258.76,208.8,260.23,210.19Z"/></g></g></svg>