<?xml version="1.0" encoding="utf-8"?>
<!-- Generator: Adobe Illustrator 23.0.1, SVG Export Plug-In . SVG Version: 6.00 Build 0)  -->
<svg version="1.1" id="Layer_1" xmlns="http://www.w3.org/2000/svg" xmlns:xlink="http://www.w3.org/1999/xlink" x="0px" y="0px"
	 viewBox="0 0 1440 785" style="enable-background:new 0 0 1440 785;" xml:space="preserve">
<style type="text/css">
	.st0{fill-rule:evenodd;clip-rule:evenodd;fill:#2F90E5;}
	.st1{filter:url(#filter-3);}
	.st2{fill-rule:evenodd;clip-rule:evenodd;}
	.st3{filter:url(#Adobe_OpacityMaskFilter);}
	.st4{fill-rule:evenodd;clip-rule:evenodd;fill:#FFFFFF;}
	.st5{mask:url(#mask-2_1_);fill-rule:evenodd;clip-rule:evenodd;fill:#F9FBFD;fill-opacity:0.15;}
</style>
<filter  filterUnits="objectBoundingBox" height="102.0%" id="filter-3" width="100.8%" x="-0.4%" y="-1.0%">
	<feMorphology  in="SourceAlpha" operator="erode" radius="5" result="shadowSpreadInner1"></feMorphology>
	<feGaussianBlur  in="shadowSpreadInner1" result="shadowBlurInner1" stdDeviation="5"></feGaussianBlur>
	<feOffset  dx="0" dy="1" in="shadowBlurInner1" result="shadowOffsetInner1"></feOffset>
	<feComposite  in="shadowOffsetInner1" in2="SourceAlpha" k2="-1" k3="1" operator="arithmetic" result="shadowInnerInner1">
		</feComposite>
	
		<feColorMatrix  in="shadowInnerInner1" type="matrix" values="0 0 0 0 0.0235294118   0 0 0 0 0.0980392157   0 0 0 0 0.203921569  0 0 0 0.2 0">
		</feColorMatrix>
</filter>
<title>610DB696-9225-4F91-9183-981111765968</title>
<desc>Created with sketchtool.</desc>
<g id="Public-Content">
	<g id="Home-Page">
		<g id="Group-3" transform="translate(-312.000000, -20.000000)">
			<g id="Rectangle-5" transform="translate(945.053856, 402.500000) scale(1, -1) translate(-945.053856, -402.500000) ">
				<g>
					<path class="st0" d="M0.5,107.9c244.9,83.7,459.2,125.5,642.9,125.5c275.5,0,377.6-152.2,641.8-152.2
						c176.2,0,377.6,62.9,604.4,188.8l-77,616.2H277.2L0.5,107.9z"/>
				</g>
				<g class="st1">
					<path class="st2" d="M0.5,107.9c244.9,83.7,459.2,125.5,642.9,125.5c275.5,0,377.6-152.2,641.8-152.2
						c176.2,0,377.6,62.9,604.4,188.8l-77,616.2H277.2L0.5,107.9z"/>
				</g>
			</g>
			<defs>
				<filter id="Adobe_OpacityMaskFilter" filterUnits="userSpaceOnUse" x="-7.5" y="353.7" width="2026.8" height="824.2">
					<feColorMatrix  type="matrix" values="1 0 0 0 0  0 1 0 0 0  0 0 1 0 0  0 0 0 1 0"/>
				</filter>
			</defs>
			<mask maskUnits="userSpaceOnUse" x="-7.5" y="353.7" width="2026.8" height="824.2" id="mask-2_1_">
				<g class="st3">
					<path id="path-1_1_" class="st4" d="M0.5-54.6C245.4,29.1,459.7,70.9,643.4,70.9c275.5,0,377.6-152.2,641.8-152.2
						c176.2,0,377.6,62.9,604.4,188.8l-77,616.2H277.2L0.5-54.6z"/>
				</g>
			</mask>
			<path class="st5" d="M-7.5,639.2c110.3-116.7,249.3-175,417-175c251.5,0,366,85,617.5,85s506.5-195.5,758-195.5
				c167.7,0,245.3,52.7,233,158v666.1L6,1167.5L-7.5,639.2z"/>
		</g>
	</g>
</g>
</svg>
