<?xml version="1.0" encoding="utf-8"?>
<!-- Generator: Adobe Illustrator 23.0.1, SVG Export Plug-In . SVG Version: 6.00 Build 0)  -->
<svg version="1.1" id="Layer_1" xmlns="http://www.w3.org/2000/svg" xmlns:xlink="http://www.w3.org/1999/xlink" x="0px" y="0px"
	 viewBox="0 0 1440 785" style="enable-background:new 0 0 1440 785;" xml:space="preserve">
<style type="text/css">
	.st0{fill-rule:evenodd;clip-rule:evenodd;fill:#27AE60;}
	.st1{display:none;fill-rule:evenodd;clip-rule:evenodd;fill:#F9FBFD;fill-opacity:0.15;}
</style>
<title>610DB696-9225-4F91-9183-981111765968</title>
<desc>Created with sketchtool.</desc>
<g id="Public-Content">
	<g id="Home-Page">
		<g id="Group-3" transform="translate(-312.000000, -20.000000)">
			<g id="Rectangle-5" transform="translate(945.053856, 402.500000) scale(1, -1) translate(-945.053856, -402.500000) ">
				<g>
					<path class="st0" d="M2102.9,871.2c-214.9-145.3-410-225.7-585.5-241.2c-263.2-23.2-378.3,119.4-652.7,95.2
						c-183-16.1-392.8-76.6-629.4-181.5l26.5,102.2l180.7,697.4l1529.5,134.9l93.5-433.6L2102.9,871.2z"/>
				</g>
				<g>
					<path class="st0" d="M2102.9,871.2c-214.9-145.3-410-225.7-585.5-241.2c-263.2-23.2-378.3,119.4-652.7,95.2
						c-183-16.1-392.8-76.6-629.4-181.5l26.5,102.2l180.7,697.4l1529.5,134.9l93.5-433.6L2102.9,871.2z"/>
				</g>
			</g>
			<path class="st1" d="M2102.9-66.2C1888.1,79.2,1693,159.5,1517.5,175c-263.2,23.2-378.3-119.4-652.7-95.2
				c-183,16.1-392.8,76.6-629.4,181.5l26.5-102.2C356.3,61.4,476.5,6.2,622.3-6.6c250.5-22.1,372.1,52.5,622.6,30.4
				s487.4-239.3,737.9-261.4c30.4-2.7,58-3.4,82.7-2L2102.9-66.2z"/>
		</g>
	</g>
</g>
</svg>
